:FULLY-SPECIFIED
:FORCE-ALL-JOINTS-BE-3DOF
:DEGREES
485
root 10.7729 17.191 31.7785 4.85184 4.10457 4.7474
lfemur 9.04457 1.89232 -29.061
ltibia 5.15327 -0 0
lfoot -15.3912 4.59516 0.00145039
ltoes 2.2104 -0 0
rfemur -37.9391 11.2261 9.0946
rtibia 34.5864 -0 0
rfoot -25.4491 -8.42325 0.0132971
rtoes -2.94153 0 0
lowerback -5.81216 -4.41707 -5.16257
upperback -0.308116 -5.57927 1.12464
thorax 3.57235 -2.86957 3.49705
lowerneck -22.2539 -2.70919 -10.2613
upperneck 25.1596 -3.45403 11.0495
head 12.4109 -1.08087 5.41009
lclavicle 2.62644e-14 2.22639e-14 0
lhumerus -15.9355 -21.9815 86.8334
lradius 32.3902 -0 0
lwrist 4.29022 0 0
lhand -13.9324 -25.7118 0.0139512
lfingers 7.12502 -0 0
lthumb 12.194 3.90793 0.0124375
rclavicle 2.62644e-14 2.22639e-14 0
rhumerus -49.5334 8.15685 -86.2054
rradius 35.6934 -0 0
rwrist -17.5273 0 0
rhand -29.2629 -24.8538 0.0167069
rfingers 7.12502 -0 0
rthumb -2.60561 -54.8169 0.0160982
486
root 10.7724 17.1828 31.9071 4.84045 4.20976 4.82601
lfemur 9.90232 1.84132 -29.0971
ltibia 4.50911 -0 0
lfoot -15.4723 4.5874 0.00130755
ltoes 2.278 -0 0
rfemur -38.5488 11.5907 8.77472
rtibia 33.6629 -0 0
rfoot -25.9561 -8.4346 0.0119855
rtoes -2.44253 0 0
lowerback -5.8196 -4.51829 -5.23449
upperback -0.270995 -5.70843 1.11602
thorax 3.6315 -2.93677 3.51472
lowerneck -22.2906 -2.66736 -10.2136
upperneck 25.1865 -3.41384 11.0617
head 12.4224 -1.05608 5.41496
lclavicle 2.62644e-14 2.22639e-14 0
lhumerus -15.6103 -22.2782 86.7076
lradius 32.7455 -0 0
lwrist 4.55905 0 0
lhand -14.0176 -25.7829 0.0125771
lfingers 7.12502 -0 0
lthumb 12.1119 3.84225 0.0112125
rclavicle 2.62644e-14 2.22639e-14 0
rhumerus -49.6648 8.0833 -86.1391
rradius 35.7348 -0 0
rwrist -17.675 0 0
rhand -29.2282 -24.6449 0.0150611
rfingers 7.12502 -0 0
rthumb -2.57209 -54.6085 0.0145123
487
root 10.772 17.1745 32.0357 4.8292 4.31498 4.90461
lfemur 10.7601 1.79086 -29.1339
ltibia 3.86495 -0 0
lfoot -15.5533 4.57963 0.00115371
ltoes 2.3456 -0 0
rfemur -39.1614 11.9519 8.45047
rtibia 32.7394 -0 0
rfoot -26.4631 -8.44594 0.0105735
rtoes -1.94352 0 0
lowerback -5.82692 -4.61952 -5.30642
upperback -0.233845 -5.83759 1.10732
thorax 3.69064 -3.00398 3.53232
lowerneck -22.3273 -2.62549 -10.1658
upperneck 25.2134 -3.37366 11.0739
head 12.4339 -1.0313 5.41984
lclavicle 2.62644e-14 2.22639e-14 0
lhumerus -15.2836 -22.5743 86.5798
lradius 33.1009 -0 0
lwrist 4.82789 0 0
lhand -14.1029 -25.8539 0.0110974
lfingers 7.12502 -0 0
lthumb 12.0297 3.77657 0.00989329
rclavicle 2.62644e-14 2.22639e-14 0
rhumerus -49.7962 8.0099 -86.0727
rradius 35.7762 -0 0
rwrist -17.8227 0 0
rhand -29.1935 -24.436 0.0132888
rfingers 7.12502 -0 0
rthumb -2.53859 -54.4001 0.0128046
488
root 10.7715 17.1663 32.1643 4.81809 4.42021 4.9832
lfemur 11.6178 1.74096 -29.1715
ltibia 3.22079 -0 0
lfoot -15.6344 4.57186 0.000988891
ltoes 2.4132 -0 0
rfemur -39.7769 12.3097 8.12185
rtibia 31.8159 -0 0
rfoot -26.9701 -8.45726 0.00906126
rtoes -1.44452 0 0
lowerback -5.83411 -4.72076 -5.37834
upperback -0.196667 -5.96674 1.09853
thorax 3.74976 -3.07122 3.54985
lowerneck -22.3639 -2.5836 -10.1181
upperneck 25.2403 -3.33349 11.0862
head 12.4455 -1.00651 5.42472
lclavicle 2.62644e-14 2.22639e-14 0
lhumerus -14.9556 -22.8697 86.4498
lradius 33.4562 -0 0
lwrist 5.09672 0 0
lhand -14.1881 -25.9249 0.00951195
lfingers 7.12502 -0 0
lthumb 11.9475 3.71089 0.00847989
rclavicle 2.62644e-14 2.22639e-14 0
rhumerus -49.9277 7.93665 -86.0062
rradius 35.8176 -0 0
rwrist -17.9704 0 0
rhand -29.1588 -24.2272 0.01139
rfingers 7.12502 -0 0
rthumb -2.50509 -54.1917 0.010975
489
root 10.7711 17.1581 32.2929 4.80713 4.52545 5.06177
lfemur 12.4756 1.69163 -29.2098
ltibia 2.57663 -0 0
lfoot -15.7155 4.5641 0.000813084
ltoes 2.4808 -0 0
rfemur -40.3953 12.6641 7.78886
rtibia 30.8924 -0 0
rfoot -27.4772 -8.46858 0.00744881
rtoes -0.945519 0 0
lowerback -5.84117 -4.822 -5.45026
upperback -0.15946 -6.09589 1.08965
thorax 3.80886 -3.13847 3.56731
lowerneck -22.4005 -2.54168 -10.0705
upperneck 25.2672 -3.29332 11.0984
head 12.457 -0.981727 5.42961
lclavicle 2.62644e-14 2.22639e-14 0
lhumerus -14.6261 -23.1644 86.3178
lradius 33.8115 -0 0
lwrist 5.36555 0 0
lhand -14.2734 -25.9959 0.00782086
lfingers 7.12502 -0 0
lthumb 11.8653 3.64522 0.00697229
rclavicle 2.62644e-14 2.22639e-14 0
rhumerus -50.0593 7.86356 -85.9395
rradius 35.859 -0 0
rwrist -18.1182 0 0
rhand -29.1241 -24.0183 0.00936475
rfingers 7.12502 -0 0
rthumb -2.47159 -53.9833 0.00902356
490
root 10.7706 17.1499 32.4215 4.79632 4.63071 5.14035
lfemur 13.3334 1.64288 -29.2489
ltibia 1.93248 -0 0
lfoot -15.7965 4.55633 0.00062629
ltoes 2.5484 -0 0
rfemur -41.0166 13.0149 7.45149
rtibia 29.9689 -0 0
rfoot -27.9842 -8.47987 0.00573632
rtoes -0.446517 0 0
lowerback -5.84811 -4.92326 -5.52217
upperback -0.122225 -6.22503 1.08069
thorax 3.86795 -3.20574 3.58471
lowerneck -22.437 -2.49973 -10.0228
upperneck 25.2941 -3.25316 11.1107
head 12.4686 -0.956944 5.4345
lclavicle 2.62644e-14 2.22639e-14 0
lhumerus -14.2952 -23.4583 86.1835
lradius 34.1668 -0 0
lwrist 5.63439 0 0
lhand -14.3587 -26.0669 0.00602411
lfingers 7.12502 -0 0
lthumb 11.7831 3.57955 0.0053705
rclavicle 2.62644e-14 2.22639e-14 0
rhumerus -50.1909 7.79061 -85.8726
rradius 35.9004 -0 0
rwrist -18.2659 0 0
rhand -29.0895 -23.8094 0.00721311
rfingers 7.12502 -0 0
rthumb -2.43811 -53.7749 0.00695031
491
root 10.7701 17.1416 32.55 4.78564 4.73599 5.21891
lfemur 14.1912 1.59471 -29.2887
ltibia 1.28832 -0 0
lfoot -15.8776 4.54857 0.000428512
ltoes 2.616 -0 0
rfemur -41.641 13.3621 7.10975
rtibia 29.0454 -0 0
rfoot -28.4912 -8.49116 0.00392393
rtoes 0.0524855 -0 0
lowerback -5.85492 -5.02453 -5.59409
upperback -0.084959 -6.35416 1.07164
thorax 3.92702 -3.27302 3.60203
lowerneck -22.4735 -2.45775 -9.97523
upperneck 25.321 -3.213 11.123
head 12.4801 -0.932163 5.43939
lclavicle 2.62644e-14 2.22639e-14 0
lhumerus -13.9628 -23.7516 86.0472
lradius 34.5221 -0 0
lwrist 5.90322 0 0
lhand -14.4439 -26.1379 0.00412172
lfingers 7.12502 -0 0
lthumb 11.7009 3.51388 0.00367452
rclavicle 2.62644e-14 2.22639e-14 0
rhumerus -50.3226 7.71782 -85.8056
rradius 35.9418 -0 0
rwrist -18.4136 0 0
rhand -29.0548 -23.6005 0.00493508
rfingers 7.12502 -0 0
rthumb -2.40463 -53.5665 0.00475528
492
root 10.7697 17.1334 32.6786 4.77511 4.84128 5.29746
lfemur 15.049 1.54715 -29.3292
ltibia 0.644158 -0 0
lfoot -15.9586 4.5408 0.000219748
ltoes 2.6836 -0 0
rfemur -42.2684 13.7057 6.76364
rtibia 28.1219 -0 0
rfoot -28.9982 -8.50242 0.00201177
rtoes 0.551488 -0 0
lowerback -5.8616 -5.1258 -5.66601
upperback -0.0476635 -6.48329 1.0625
thorax 3.98607 -3.34033 3.61929
lowerneck -22.51 -2.41573 -9.92764
upperneck 25.3479 -3.17285 11.1354
head 12.4917 -0.907382 5.44429
lclavicle 2.62644e-14 2.22639e-14 0
lhumerus -13.6288 -24.0441 85.9086
lradius 34.8774 -0 0
lwrist 6.17206 0 0
lhand -14.5292 -26.2089 0.00211368
lfingers 7.12502 -0 0
lthumb 11.6188 3.44821 0.00188435
rclavicle 2.62644e-14 2.22639e-14 0
rhumerus -50.4544 7.64518 -85.7384
rradius 35.9832 -0 0
rwrist -18.5613 0 0
rhand -29.0201 -23.3917 0.0025307
rfingers 7.12502 -0 0
rthumb -2.37116 -53.3581 0.0024385
493
root 10.7692 17.1252 32.8072 4.76472 4.94658 5.37601
lfemur 15.9068 1.5002 -29.3704
ltibia 3.18055e-15 0 0
lfoot -16.0397 4.53304 0
ltoes 2.7512 0 0
rfemur -42.8989 14.0455 6.41316
rtibia 27.1984 0 0
rfoot -29.5052 -8.51367 0
rtoes 1.05049 0 0
lowerback -5.86816 -5.22708 -5.73792
upperback -0.0103376 -6.61241 1.05328
thorax 4.04511 -3.40765 3.63648
lowerneck -22.5464 -2.37369 -9.88009
upperneck 25.3748 -3.1327 11.1477
head 12.5032 -0.882602 5.4492
lclavicle 2.62644e-14 2.22639e-14 0
lhumerus -13.2933 -24.3359 85.7679
lradius 35.2327 0 0
lwrist 6.44089 0 0
lhand -14.6144 -26.2799 0
lfingers 7.12502 0 0
lthumb 11.5366 3.38255 0
rclavicle 2.62644e-14 2.22639e-14 0
rhumerus -50.5862 7.57269 -85.6711
rradius 36.0246 0 0
rwrist -18.709 0 0
rhand -28.9855 -23.1828 0
rfingers 7.12502 0 0
rthumb -2.3377 -53.1497 0
494
root 10.7481 17.0959 32.9558 4.65324 4.79708 5.51746
lfemur 16.5642 1.62343 -29.3651
ltibia -2.22639e-14 0 0
lfoot -16.0888 4.50031 0
ltoes 0.997747 0 0
rfemur -42.771 13.6049 6.80794
rtibia 27.2264 0 0
rfoot -29.1789 -8.67149 0
rtoes -0.677596 0 0
lowerback -6.13164 -5.23021 -6.04473
upperback 0.406665 -6.57042 1.04862
thorax 4.66047 -3.4167 3.75754
lowerneck -22.6942 -2.53726 -9.82119
upperneck 24.8054 -3.27237 10.95
head 12.3221 -0.957129 5.30872
lclavicle 5.31749e-14 2.22639e-14 0
lhumerus -12.7731 -23.3794 85.6477
lradius 35.7882 0 0
lwrist 8.117 0 0
lhand -15.7376 -26.2091 0
lfingers 7.12502 0 0
lthumb 10.4532 3.51098 0
rclavicle 5.31749e-14 2.22639e-14 0
rhumerus -49.9325 7.32231 -85.443
rradius 35.4595 0 0
rwrist -18.5607 0 0
rhand -29.0966 -22.7552 0
rfingers 7.12502 0 0
rthumb -2.44505 -52.7209 0
495
root 10.7306 17.0685 33.1104 4.86729 4.6655 5.48868
lfemur 16.8913 1.6869 -29.2017
ltibia 3.18055e-14 0 0
lfoot -16.0758 4.53664 0
ltoes -5.45447 0 0
rfemur -42.7838 12.8253 7.41241
rtibia 26.9642 0 0
rfoot -24.5665 -13.2811 0
rtoes -26.2908 0 0
lowerback -6.78009 -5.16509 -6.05225
upperback 0.771123 -6.43505 1.06323
thorax 5.39689 -3.37393 3.71693
lowerneck -23.0717 -2.50881 -9.72001
upperneck 24.4445 -3.20599 10.953
head 12.2456 -0.905414 5.29072
lclavicle -1.85367e-14 3.97569e-15 0
lhumerus -12.6917 -24.6731 85.8763
lradius 35.4237 0 0
lwrist 6.44554 0 0
lhand -15.4761 -26.4813 0
lfingers 7.12502 0 0
lthumb 10.7055 3.22593 0
rclavicle -1.85367e-14 3.97569e-15 0
rhumerus -49.2089 6.63563 -85.0246
rradius 34.8675 0 0
rwrist -18.1223 0 0
rhand -29.6432 -22.0297 0
rfingers 7.12502 0 0
rthumb -2.97289 -51.9887 0
496
root 10.7157 17.0513 33.2713 5.18013 4.61655 5.52685
lfemur 17.1368 1.64511 -29.082
ltibia 2.54444e-14 0 0
lfoot -16.1184 4.23907 0
ltoes -6.67752 0 0
rfemur -42.7783 12.0213 7.87843
rtibia 26.7043 0 0
rfoot -24.5665 -13.2811 0
rtoes -26.2908 0 0
lowerback -7.53232 -5.10591 -6.05913
upperback 1.05834 -6.29968 1.02861
thorax 6.10793 -3.32676 3.62364
lowerneck -23.8402 -2.4542 -9.48406
upperneck 24.5422 -3.19421 11.0841
head 12.4346 -0.841757 5.32016
lclavicle 1.82882e-14 2.38542e-15 0
lhumerus -12.2208 -24.7429 85.754
lradius 36.0106 0 0
lwrist 8.9382 0 0
lhand -9.89138 -25.5646 0
lfingers 7.12502 0 0
lthumb 16.0882 3.78753 0
rclavicle 1.82882e-14 2.38542e-15 0
rhumerus -48.5883 6.01938 -84.7235
rradius 34.187 0 0
rwrist -17.7107 0 0
rhand -29.8835 -21.2204 0
rfingers 7.12502 0 0
rthumb -3.20492 -51.1761 0
497
root 10.6953 17.0428 33.4321 5.27991 4.70034 5.50235
lfemur 17.5845 1.49972 -28.8195
ltibia 5.40694e-14 0 0
lfoot -16.3565 3.70312 0
ltoes -2.13365 0 0
rfemur -42.6107 11.5462 8.33203
rtibia 26.6663 0 0
rfoot -24.5665 -13.2811 0
rtoes -26.2908 0 0
lowerback -7.88529 -5.18831 -6.11138
upperback 1.27581 -6.37753 1.02059
thorax 6.55434 -3.38012 3.58953
lowerneck -23.6777 -2.61025 -9.39858
upperneck 23.884 -3.38156 10.9758
head 12.1651 -0.932211 5.195
lclavicle 3.22031e-14 0 0
lhumerus -12.5808 -26.2875 86.0139
lradius 35.4741 0 0
lwrist 7.48265 0 0
lhand -13.8504 -25.933 0
lfingers 7.12502 0 0
lthumb 12.2734 3.6868 0
rclavicle 3.22031e-14 0 0
rhumerus -48.2294 5.79478 -84.6185
rradius 33.7577 0 0
rwrist -17.4986 0 0
rhand -29.7559 -20.7266 0
rfingers 7.12502 0 0
rthumb -3.08174 -50.6841 0
498
root 10.6761 17.0037 33.5981 5.38136 4.67284 5.52799
lfemur 18.1138 1.47902 -28.7405
ltibia 5.40694e-14 0 0
lfoot -16.6898 3.75721 0
ltoes -0.251722 0 0
rfemur -42.5057 10.9194 8.85911
rtibia 26.6793 0 0
rfoot -24.5665 -13.2811 0
rtoes -26.2908 0 0
lowerback -7.98293 -5.34534 -6.27563
upperback 1.28527 -6.56935 1.10145
thorax 6.67247 -3.48471 3.72387
lowerneck -23.881 -2.45451 -9.13554
upperneck 23.8814 -3.15171 10.6723
head 12.1635 -0.839335 5.07101
lclavicle 1.32192e-14 -6.36111e-15 0
lhumerus -12.8339 -25.1614 86.1444
lradius 36.0076 0 0
lwrist 11.3106 0 0
lhand -12.7448 -26.2662 0
lfingers 7.12502 0 0
lthumb 13.3392 3.28685 0
rclavicle 1.32192e-14 -6.36111e-15 0
rhumerus -48.2705 5.83432 -84.4253
rradius 33.5635 0 0
rwrist -17.257 0 0
rhand -29.7088 -20.2153 0
rfingers 7.12502 0 0
rthumb -3.03627 -50.1735 0
